<svg xmlns="http://www.w3.org/2000/svg" width="822.438" height="606.469" viewBox="0 0 822.438 606.469">
  <defs>
    <style>
      .cls-1 {
        fill: #3d458e;
        fill-rule: evenodd;
      }
    </style>
  </defs>
  <path id="SVG" class="cls-1" d="M765,113c0.3-20.945,18.6-23.967,41-23,10.9,12.435,23.415,30.334,36,41,17.682,14.986,35.45,21.984,52,39-2.451,9.462-2.02,17.336-6,25-6.325,12.178-21.7,19.764-23,36l13,19c0.478,9.1-.315,17.045-5,21l-3,1-28-34h-4l-3,19c-17.207,2.773-55.259,44.059-70,54-8.345-3.641-7.226-8.106-21-8-3.181,4.838-22.382,19.484-33,15-2.576-1.675-8.571-10.149-7-12-26.04-30.215-23.359-89.737,17-105l6,3c1.191,3.765,2.858,7.705,1,12l-14,18c-7.9,15.2-7.519,52.88,1,67,10.6-6.248,27.58-18.469,40-18l7,9c17.886-2.469,72.2-41.537,55-67q0.5-1.5,1-3l9,3v-4c-12.34-4.851-60.219-94.8-96-77-26.752,13.307-34.819,45.205-65,59l-5-3v-4c10.287-9.473,45.568-63.855,50-78-18.09-3.056-27.454-14.947-31-33l4-3a463.52,463.52,0,0,1,112,80c9.171,8.9,36.557,44.585,52,46h1c5.691-8.056,16.161-9.771,14-23l-39-33c-11.129-14.288-12.378-42.728-36-44C780.917,110.723,774.667,112.791,765,113ZM331,398c67.873-1.125,117.3,35.448,162,59-2.1,9.341-7.434,13.695-20,13-12.5-14.321-109.156-35.99-136-44-15.149-4.52-49.56,3.52-59-5-8.687-17.1,44.814-72.455,55-84,53.333-60.45,100.175-97.627,176-134,31.133-14.934,81.9-25.8,121-10q0.5,1,1,2l-59,15-54,11c-54.968,22.955-100.9,67.142-136,108C369.05,344.076,333.39,376.2,331,398Zm207-5,63-4c0.307-8.007,10.6-51.214,16-58v-2h4l2,3c-2.063,25.156-.926,61.129-12,79-28.171-.2-60.67-1.19-85,4q4,17.5,8,35c16.707,26.384,106.621,62.72,141,79,11.78,5.578,28.761,5.143,39,13l15,18c20.807,15.735,50.16,21.661,77,31l26,13v2l-77-8c-42.908-26.193-84.283-66.64-144-75v6c18.919,18.031,3.391,98.255,13,129l19,24-1,1-30-1c-13.293-23.753-.011-87.586-8-125-2.777-13.006-4.59-28.3,1-38-10.524-4.015-20.526-14.243-29-18-36.338-16.112-68.892-28.238-68-82h-7c-1.407-83.119,41.788-165.693,85-206,20.567-.707,28.978.831,38,11q-0.5,9-1,18l-3,4c-10.485-24.136-41.044-4.66-50,8C550.88,281.029,537.312,348.318,538,393ZM668,288c5.705,6.4,3,30.048,3,41q1,52.494,2,105c-4.238.312-3.964-.062-6,2q1,18,2,36l-3-1c-5.8-10.891-11.579-23.343-15-37-11.98-4.037-36.906-2.284-47-9v-4l43-14C650.731,358.04,662.582,328.043,668,288ZM285,434l32,1c6.641,59.526,31.241,79.606,63,112l20,24v3h-7c-60.416-15.907-72.829-44.021-95-97C293.022,465.1,285.255,449.941,285,434Zm303,0c41.528-.17,96.454,67.555,132,84l29,1c15.072,2.907,40.33,14.689,46,27h-3l-71-19c-2.344-.41-3.616,3.6-8,2L587,438Q587.5,436,588,434ZM442,465c29.112,0.425,92.134,61.067,109,80,6.412,7.2,10.928,18.716,20,23-5.438-33.963-58.279-67.125-78-96l1-3,11-2c30.375,8.582,73.75,69.944,85,98,4.63,11.545,14.118,29.5,10,47-2.784-4.458-2.494-4.236-4-6l-6-3c7.918,23.169,10.98,46.694-5,65-11.7,13.4-74.054,24.576-107,19l-265-7-113-2c0.636-7.224,5.179-16.622,10-20l352,4c34.1,0.007,115.345-5.246,103-44-14.179-44.511-50.007-78.536-81-107C473.361,501.23,444.757,482.963,442,465Zm464,10c0.27,12.643,7.245,61.96,1,69l-2,5h-4q-2.5-15.5-5-31l-3,1c-1.3,8.766-16.8,37.829-21,36-4.758-1.911-5.922-3.326-8-8,8.524-33.75,16.031-52.053,37-72h5Zm-81,57c16.714,3.75,23.987,22.84,40,28,2.462,11.155-1.045,23.528-3,36h-4c-2.671-16.413-10.061-24.962-17-36h-4c0.361,8.786-.859,13.9-5,18ZM652,547c2.579,2.569,1.231,1.182,5,5,8.775,7.624,3.338,36.306,5,52q7,27.5,14,55l-2,1C641.839,639.721,651.609,590.618,652,547ZM878,670c-8.061.276-17.88,0.452-23-2-2.743-45.771,5.472-55.969,30-82,10.79-11.451,18.955-24.82,31-35h2c18.5,39.528-25.859,61.745-45,83Q875.5,652,878,670ZM358,581c30.026-.828,84.3,7.971,95,23l1,3-4,3c-36.041-6.926-89.19-12.193-122,1-18.958,7.623-38.1,18.442-60,23-25.685,5.345-50.542-5.811-68-8-16.728-2.1-47.083,13.749-54,9l18-16c30.212-13.749,72.053,5.338,107-3,23.2-5.536,46.256-19.549,66-30Zm-78,20q-0.5,2.5-1,5c-10.4,14.34-59.285-2.572-76-3h0c1-.333,2-4.667,3-5C213.272,588.587,262.4,600.456,280,601Zm396,58q0.5,1,1,2Q676.5,660,676,659Z" transform="translate(-100 -82)"/>
</svg>
